<mxfile host="65bd71144e">
    <diagram id="u79CN8P1TTN_0yYjMMCz" name="Page-1">
        <mxGraphModel dx="640" dy="540" grid="1" gridSize="10" guides="1" tooltips="1" connect="1" arrows="1" fold="1" page="1" pageScale="1" pageWidth="850" pageHeight="1100" math="0" shadow="0">
            <root>
                <mxCell id="0"/>
                <mxCell id="1" parent="0"/>
                <mxCell id="6" value="≪device≫&lt;br&gt;Computadora del usuario" style="verticalAlign=top;align=center;shape=cube;size=10;direction=south;fontStyle=0;html=1;boundedLbl=1;spacingLeft=5;fillColor=none;fontColor=#006EAF;strokeColor=#006EAF;" vertex="1" parent="1">
                    <mxGeometry x="40" y="40" width="190" height="140" as="geometry"/>
                </mxCell>
                <mxCell id="8" value="Navegador web" style="html=1;dropTarget=0;fillColor=none;fontColor=#006EAF;strokeColor=#006EAF;" vertex="1" parent="1">
                    <mxGeometry x="60" y="100" width="140" height="60" as="geometry"/>
                </mxCell>
                <mxCell id="9" value="" style="shape=module;jettyWidth=8;jettyHeight=4;fillColor=none;fontColor=#006EAF;strokeColor=#006EAF;" vertex="1" parent="8">
                    <mxGeometry x="1" width="20" height="20" relative="1" as="geometry">
                        <mxPoint x="-27" y="7" as="offset"/>
                    </mxGeometry>
                </mxCell>
                <mxCell id="11" value="≪node≫&lt;br&gt;Servidor web" style="verticalAlign=top;align=center;shape=cube;size=10;direction=south;fontStyle=0;html=1;boundedLbl=1;spacingLeft=5;fillColor=none;fontColor=#006EAF;strokeColor=#006EAF;" vertex="1" parent="1">
                    <mxGeometry x="40" y="280" width="190" height="140" as="geometry"/>
                </mxCell>
                <mxCell id="12" value="Lógica de negocios" style="html=1;dropTarget=0;fillColor=none;fontColor=#006EAF;strokeColor=#006EAF;verticalAlign=middle;" vertex="1" parent="1">
                    <mxGeometry x="60" y="340" width="140" height="60" as="geometry"/>
                </mxCell>
                <mxCell id="13" value="" style="shape=module;jettyWidth=8;jettyHeight=4;fillColor=none;fontColor=#006EAF;strokeColor=#006EAF;" vertex="1" parent="12">
                    <mxGeometry x="1" width="20" height="20" relative="1" as="geometry">
                        <mxPoint x="-27" y="7" as="offset"/>
                    </mxGeometry>
                </mxCell>
                <mxCell id="14" value="≪node≫&lt;br&gt;Servidor de aplicación" style="verticalAlign=top;align=center;shape=cube;size=10;direction=south;fontStyle=0;html=1;boundedLbl=1;spacingLeft=5;fillColor=none;fontColor=#006EAF;strokeColor=#006EAF;" vertex="1" parent="1">
                    <mxGeometry x="350" y="40" width="230" height="280" as="geometry"/>
                </mxCell>
                <mxCell id="15" value="WebSphere" style="html=1;dropTarget=0;fillColor=none;fontColor=#006EAF;strokeColor=#006EAF;verticalAlign=top;" vertex="1" parent="1">
                    <mxGeometry x="370" y="100" width="180" height="200" as="geometry"/>
                </mxCell>
                <mxCell id="16" value="" style="shape=module;jettyWidth=8;jettyHeight=4;fillColor=none;fontColor=#006EAF;strokeColor=#006EAF;" vertex="1" parent="15">
                    <mxGeometry x="1" width="20" height="20" relative="1" as="geometry">
                        <mxPoint x="-27" y="7" as="offset"/>
                    </mxGeometry>
                </mxCell>
                <mxCell id="17" value="&lt;span&gt;Aplicación web&lt;/span&gt;" style="html=1;dropTarget=0;fillColor=none;fontColor=#006EAF;strokeColor=#006EAF;fontStyle=0" vertex="1" parent="1">
                    <mxGeometry x="390" y="140" width="140" height="60" as="geometry"/>
                </mxCell>
                <mxCell id="18" value="" style="shape=module;jettyWidth=8;jettyHeight=4;fillColor=none;fontColor=#006EAF;strokeColor=#006EAF;" vertex="1" parent="17">
                    <mxGeometry x="1" width="20" height="20" relative="1" as="geometry">
                        <mxPoint x="-27" y="7" as="offset"/>
                    </mxGeometry>
                </mxCell>
                <mxCell id="19" value="API conexión DB" style="html=1;dropTarget=0;fillColor=none;fontColor=#006EAF;strokeColor=#006EAF;fontStyle=0;align=center;" vertex="1" parent="1">
                    <mxGeometry x="390" y="215" width="140" height="60" as="geometry"/>
                </mxCell>
                <mxCell id="20" value="" style="shape=module;jettyWidth=8;jettyHeight=4;fillColor=none;fontColor=#006EAF;strokeColor=#006EAF;" vertex="1" parent="19">
                    <mxGeometry x="1" width="20" height="20" relative="1" as="geometry">
                        <mxPoint x="-27" y="7" as="offset"/>
                    </mxGeometry>
                </mxCell>
                <mxCell id="21" value="≪node≫&lt;br&gt;Servidor de base de datos" style="verticalAlign=top;align=center;shape=cube;size=10;direction=south;fontStyle=0;html=1;boundedLbl=1;spacingLeft=5;fillColor=none;fontColor=#006EAF;strokeColor=#006EAF;" vertex="1" parent="1">
                    <mxGeometry x="370" y="360" width="190" height="140" as="geometry"/>
                </mxCell>
                <mxCell id="22" value="Reporte de datos" style="html=1;dropTarget=0;fillColor=none;fontColor=#006EAF;strokeColor=#006EAF;" vertex="1" parent="1">
                    <mxGeometry x="390" y="420" width="140" height="60" as="geometry"/>
                </mxCell>
                <mxCell id="23" value="" style="shape=module;jettyWidth=8;jettyHeight=4;fillColor=none;fontColor=#006EAF;strokeColor=#006EAF;" vertex="1" parent="22">
                    <mxGeometry x="1" width="20" height="20" relative="1" as="geometry">
                        <mxPoint x="-27" y="7" as="offset"/>
                    </mxGeometry>
                </mxCell>
                <mxCell id="24" value="≪http over internet≫" style="endArrow=open;startArrow=none;endFill=0;startFill=0;endSize=8;html=1;verticalAlign=bottom;dashed=1;labelBackgroundColor=none;fontColor=#006EAF;fillColor=#1ba1e2;strokeColor=#006EAF;" edge="1" parent="1" source="8" target="17">
                    <mxGeometry x="-0.0644" y="9" width="160" relative="1" as="geometry">
                        <mxPoint x="150" y="230" as="sourcePoint"/>
                        <mxPoint x="310" y="230" as="targetPoint"/>
                        <mxPoint as="offset"/>
                    </mxGeometry>
                </mxCell>
                <mxCell id="25" value="≪soap over http≫" style="endArrow=open;startArrow=none;endFill=0;startFill=0;endSize=8;html=1;verticalAlign=bottom;dashed=1;labelBackgroundColor=none;fontColor=#006EAF;fillColor=#1ba1e2;strokeColor=#006EAF;" edge="1" parent="1" source="12" target="17">
                    <mxGeometry x="-0.0644" y="9" width="160" relative="1" as="geometry">
                        <mxPoint x="210" y="148.4848484848485" as="sourcePoint"/>
                        <mxPoint x="400" y="171.5151515151515" as="targetPoint"/>
                        <mxPoint as="offset"/>
                    </mxGeometry>
                </mxCell>
                <mxCell id="26" value="≪native connection≫" style="endArrow=open;startArrow=none;endFill=0;startFill=0;endSize=8;html=1;verticalAlign=bottom;dashed=1;labelBackgroundColor=none;fontColor=#006EAF;fillColor=#1ba1e2;strokeColor=#006EAF;" edge="1" parent="1" source="22" target="19">
                    <mxGeometry x="-0.0644" y="9" width="160" relative="1" as="geometry">
                        <mxPoint x="189.5" y="350" as="sourcePoint"/>
                        <mxPoint x="420.5" y="210" as="targetPoint"/>
                        <mxPoint as="offset"/>
                    </mxGeometry>
                </mxCell>
                <mxCell id="28" value="" style="endArrow=none;startArrow=none;endFill=0;startFill=0;endSize=8;html=1;verticalAlign=bottom;labelBackgroundColor=none;strokeWidth=1;fontColor=#006EAF;fillColor=#1ba1e2;strokeColor=#006EAF;" edge="1" parent="1" source="17" target="19">
                    <mxGeometry width="160" relative="1" as="geometry">
                        <mxPoint x="140" y="490" as="sourcePoint"/>
                        <mxPoint x="300" y="490" as="targetPoint"/>
                    </mxGeometry>
                </mxCell>
            </root>
        </mxGraphModel>
    </diagram>
</mxfile>